<svg width="40" height="40" viewBox="0 0 40 40" fill="none" xmlns="http://www.w3.org/2000/svg">
<path fill-rule="evenodd" clip-rule="evenodd" d="M5.59922 3.2002H15.1992C16.5247 3.2002 17.5992 4.27471 17.5992 5.6002V15.2002C17.5992 16.5257 16.5247 17.6002 15.1992 17.6002H5.59922C4.27374 17.6002 3.19922 16.5257 3.19922 15.2002V5.6002C3.19922 4.27471 4.27374 3.2002 5.59922 3.2002ZM24.7984 22.4002H34.3984C35.7239 22.4002 36.7984 23.4747 36.7984 24.8002V34.4002C36.7984 35.7257 35.7239 36.8002 34.3984 36.8002H24.7984C23.473 36.8002 22.3984 35.7257 22.3984 34.4002V24.8002C22.3984 23.4747 23.473 22.4002 24.7984 22.4002Z" fill="url(#paint0_linear_83_723)"/>
<path opacity="0.3" fill-rule="evenodd" clip-rule="evenodd" d="M24.7984 3.2002H34.3984C35.7239 3.2002 36.7984 4.27471 36.7984 5.6002V15.2002C36.7984 16.5257 35.7239 17.6002 34.3984 17.6002H24.7984C23.473 17.6002 22.3984 16.5257 22.3984 15.2002V5.6002C22.3984 4.27471 23.473 3.2002 24.7984 3.2002ZM5.59922 22.4002H15.1992C16.5247 22.4002 17.5992 23.4747 17.5992 24.8002V34.4002C17.5992 35.7257 16.5247 36.8002 15.1992 36.8002H5.59922C4.27374 36.8002 3.19922 35.7257 3.19922 34.4002V24.8002C3.19922 23.4747 4.27374 22.4002 5.59922 22.4002Z" fill="url(#paint1_linear_83_723)"/>
<defs>
<linearGradient id="paint0_linear_83_723" x1="4.91346" y1="9.50023" x2="38.5422" y2="11.8506" gradientUnits="userSpaceOnUse">
<stop stop-color="#8269E7"/>
<stop offset="0.526042" stop-color="#6089E9"/>
<stop offset="1" stop-color="#68C0E8"/>
</linearGradient>
<linearGradient id="paint1_linear_83_723" x1="4.91346" y1="9.50023" x2="38.5422" y2="11.8506" gradientUnits="userSpaceOnUse">
<stop stop-color="#8269E7"/>
<stop offset="0.526042" stop-color="#6089E9"/>
<stop offset="1" stop-color="#68C0E8"/>
</linearGradient>
</defs>
</svg>
