<svg width="56" height="56" viewBox="0 0 56 56" fill="none" xmlns="http://www.w3.org/2000/svg">
<path fill-rule="evenodd" clip-rule="evenodd" d="M51.2114 44.8H4.79688L8.51105 33.6575C8.51747 33.6382 8.52404 33.6191 8.53078 33.6H47.4775C47.4842 33.6191 47.4908 33.6382 47.4972 33.6575L51.2114 44.8ZM23.5223 38.0796C22.9038 38.0796 22.4023 38.581 22.4023 39.1996C22.4023 39.8181 22.9038 40.3196 23.5223 40.3196H32.4823C33.1009 40.3196 33.6023 39.8181 33.6023 39.1996C33.6023 38.581 33.1009 38.0796 32.4823 38.0796H23.5223ZM8.96484 31.3597V10.0797C8.96484 8.22405 10.4692 6.71973 12.3248 6.71973H43.6848C45.5405 6.71973 47.0448 8.22405 47.0448 10.0797V31.3597H8.96484ZM21.7871 13.5194L19.9001 12.147L14.7344 19.2498L19.9001 26.3527L21.7871 24.9803L17.6195 19.2498L21.7871 13.5194ZM33.4023 13.5194L37.57 19.2498L33.4023 24.9803L35.2894 26.3527L40.4551 19.2498L35.2894 12.147L33.4023 13.5194ZM29.0534 10.1992L24.3867 27.6992L26.6413 28.3004L31.3079 10.8004L29.0534 10.1992Z" fill="url(#paint0_linear_120_984)"/>
<path opacity="0.3" fill-rule="evenodd" clip-rule="evenodd" d="M51.4097 47.04C50.8908 49.5961 48.631 51.52 45.9217 51.52H10.0817C7.3725 51.52 5.11261 49.5961 4.59375 47.04L51.4097 47.04Z" fill="url(#paint1_linear_120_984)"/>
<defs>
<linearGradient id="paint0_linear_120_984" x1="7.16496" y1="13.8598" x2="53.5108" y2="17.8079" gradientUnits="userSpaceOnUse">
<stop stop-color="#8269E7"/>
<stop offset="0.526042" stop-color="#6089E9"/>
<stop offset="1" stop-color="#68C0E8"/>
</linearGradient>
<linearGradient id="paint1_linear_120_984" x1="6.98232" y1="47.88" x2="37.6882" y2="70.3069" gradientUnits="userSpaceOnUse">
<stop stop-color="#8269E7"/>
<stop offset="0.526042" stop-color="#6089E9"/>
<stop offset="1" stop-color="#68C0E8"/>
</linearGradient>
</defs>
</svg>
