<svg width="30" height="30" viewBox="0 0 16 16" fill="none" xmlns="http://www.w3.org/2000/svg">
<path d="M2.04345 8.81457C2.34907 9.13381 2.81839 9.11278 3.13694 8.8384L6.8122 5.13632L6.61617 14.1342C6.60732 14.5403 6.91226 14.8908 7.34965 14.9003L8.34942 14.9221C8.75557 14.931 9.10672 14.5948 9.11557 14.1886L9.31161 5.19078L12.7909 9.04873C13.0972 9.33672 13.5652 9.37817 13.8844 9.07255L14.5867 8.40019C14.874 8.12513 14.8849 7.62525 14.6098 7.33794L8.6496 1.14415C8.37522 0.825597 7.90658 0.815386 7.61859 1.12169L1.39423 7.05002C1.10692 7.32507 1.09671 7.79371 1.37109 8.11226L2.04345 8.81457Z" fill="url(#up-arrow)"/>
<defs>
<linearGradient id="up-arrow" x1="0.714286" y1="1.375" x2="14.7535" y2="2.13818" gradientUnits="userSpaceOnUse">
<stop offset="0"/>
<stop  offset="0.526042" />
<stop  offset="1" />
</linearGradient>
</defs>
</svg>
