<svg width="40" height="40" viewBox="0 0 40 40" fill="none" xmlns="http://www.w3.org/2000/svg">
<path fill-rule="evenodd" clip-rule="evenodd" d="M34.9408 5.69563C36.027 11.5258 33.5925 17.7093 28.7025 21.5777L15.7458 31.8278C15.4274 32.0796 14.9708 32.0531 14.6837 31.766L8.23041 25.3127C7.94335 25.0256 7.91681 24.5691 8.16869 24.2507L18.4187 11.2939C22.2872 6.40392 28.4707 3.96947 34.3008 5.0557C34.6259 5.11626 34.8802 5.37057 34.9408 5.69563ZM23.5655 10.7717C22.0034 12.3338 22.0034 14.8664 23.5655 16.4285C25.1276 17.9906 27.6602 17.9906 29.2223 16.4285C30.7844 14.8664 30.7844 12.3338 29.2223 10.7717C27.6602 9.20957 25.1276 9.20957 23.5655 10.7717ZM28.0925 15.2971C27.1552 16.2343 25.6356 16.2343 24.6984 15.2971C23.7611 14.3598 23.7611 12.8402 24.6984 11.903C25.6356 10.9657 27.1552 10.9657 28.0925 11.903C29.0298 12.8402 29.0298 14.3598 28.0925 15.2971Z" fill="url(#paint0_linear_83_757)"/>
<path opacity="0.3" fill-rule="evenodd" clip-rule="evenodd" d="M12.8023 32.2503L12.0917 32.9609C11.2403 33.8123 9.85993 33.8123 9.00853 32.9609L7.04089 30.9933C6.18949 30.1419 6.18949 28.7615 7.04089 27.9101L7.75152 27.1995L12.8023 32.2503ZM8.59691 20.7997L5.1682 18.5203C4.70357 18.2114 4.6744 17.5411 5.11045 17.1933L11.3007 12.2753C12.6345 11.2156 14.4098 10.9225 15.999 11.4692L8.59691 20.7997ZM28.5058 23.9996C29.0883 25.6203 28.7922 27.4423 27.7018 28.7971L22.7981 34.8898C22.4509 35.326 21.7819 35.2969 21.4736 34.832L19.1986 31.4014L28.5058 23.9996Z" fill="url(#paint1_linear_83_757)"/>
<defs>
<linearGradient id="paint0_linear_83_757" x1="9.38385" y1="9.9003" x2="36.6078" y2="11.8031" gradientUnits="userSpaceOnUse">
<stop stop-color="#8269E7"/>
<stop offset="0.526042" stop-color="#6089E9"/>
<stop offset="1" stop-color="#68C0E8"/>
</linearGradient>
<linearGradient id="paint1_linear_83_757" x1="6.02516" y1="15.6997" x2="30.044" y2="17.3783" gradientUnits="userSpaceOnUse">
<stop stop-color="#8269E7"/>
<stop offset="0.526042" stop-color="#6089E9"/>
<stop offset="1" stop-color="#68C0E8"/>
</linearGradient>
</defs>
</svg>
