<svg width="40" height="40" viewBox="0 0 40 40" fill="none" xmlns="http://www.w3.org/2000/svg">
<path opacity="0.3" fill-rule="evenodd" clip-rule="evenodd" d="M19.2468 31.7548L20.3808 32.8887C20.8422 33.3502 20.8422 34.0984 20.3808 34.5599C19.9193 35.0214 19.1711 35.0214 18.7096 34.5599L15.5584 31.4087C15.0969 30.9472 15.0969 30.199 15.5584 29.7375L18.7096 26.5863C19.1711 26.1248 19.9193 26.1248 20.3808 26.5863C20.8422 27.0478 20.8422 27.796 20.3808 28.2575L19.2468 29.3914H27.0293V31.7548H19.2468ZM31.7555 19.8421L32.8894 18.7082C33.3509 18.2467 34.0991 18.2467 34.5606 18.7082C35.0221 19.1697 35.0221 19.9179 34.5606 20.3794L31.4094 23.5306C31.1787 23.7614 30.8762 23.8767 30.5738 23.8767C30.2714 23.8767 29.969 23.7614 29.7382 23.5306L26.587 20.3794C26.1255 19.9179 26.1255 19.1697 26.587 18.7082C27.0485 18.2467 27.7967 18.2467 28.2582 18.7082L29.3921 19.8421V12.0597H31.7555V19.8421ZM19.8437 9.69627H12.0612V7.33286H19.8437L18.7098 6.19894C18.2483 5.73746 18.2483 4.98924 18.7098 4.52775C19.1712 4.06627 19.9195 4.06627 20.3809 4.52775L23.5322 7.67897C23.9936 8.14046 23.9936 8.88868 23.5322 9.35016L20.3809 12.5014C19.9195 12.9629 19.1712 12.9629 18.7098 12.5014C18.2483 12.0399 18.2483 11.2917 18.7098 10.8302L19.8437 9.69627ZM7.33481 19.2457L6.20089 20.3796C5.73941 20.8411 4.99119 20.8411 4.52971 20.3796C4.06822 19.9181 4.06822 19.1699 4.52971 18.7084L7.68093 15.5572C8.14241 15.0957 8.89063 15.0957 9.35211 15.5572L12.5033 18.7084C12.9648 19.1699 12.9648 19.9181 12.5033 20.3796C12.0418 20.8411 11.2936 20.8411 10.8321 20.3796L9.69823 19.2457V27.0282H7.33481V19.2457Z" fill="url(#paint0_linear_83_738)"/>
<path fill-rule="evenodd" clip-rule="evenodd" d="M14.0254 11.6659V5.36341C14.0254 4.05814 12.9672 3 11.6619 3H5.35951C4.05423 3 2.99609 4.05814 2.99609 5.36341V11.6659C2.99609 12.9711 4.05423 14.0293 5.35951 14.0293H11.6619C12.9672 14.0293 14.0254 12.9711 14.0254 11.6659ZM11.6619 25.0585H5.35951C4.05423 25.0585 2.99609 26.1166 2.99609 27.4219V33.7244C2.99609 35.0296 4.05423 36.0878 5.35951 36.0878H11.6619C12.9672 36.0878 14.0254 35.0296 14.0254 33.7244V27.4219C14.0254 26.1166 12.9672 25.0585 11.6619 25.0585ZM33.7192 14.0293H27.4168C26.1115 14.0293 25.0534 12.9711 25.0534 11.6659V5.36341C25.0534 4.05814 26.1115 3 27.4168 3H33.7192C35.0245 3 36.0827 4.05814 36.0827 5.36341V11.6659C36.0827 12.9711 35.0245 14.0293 33.7192 14.0293ZM25.0534 27.4219V33.7244C25.0534 35.0296 26.1115 36.0878 27.4168 36.0878H33.7192C35.0245 36.0878 36.0827 35.0296 36.0827 33.7244V27.4219C36.0827 26.1166 35.0245 25.0585 33.7192 25.0585H27.4168C26.1115 25.0585 25.0534 26.1166 25.0534 27.4219Z" fill="url(#paint1_linear_83_738)"/>
<defs>
<linearGradient id="paint0_linear_83_738" x1="5.7511" y1="9.94246" x2="36.5012" y2="12.0916" gradientUnits="userSpaceOnUse">
<stop stop-color="#8269E7"/>
<stop offset="0.526042" stop-color="#6089E9"/>
<stop offset="1" stop-color="#68C0E8"/>
</linearGradient>
<linearGradient id="paint1_linear_83_738" x1="4.68418" y1="9.20396" x2="37.7998" y2="11.5184" gradientUnits="userSpaceOnUse">
<stop stop-color="#8269E7"/>
<stop offset="0.526042" stop-color="#6089E9"/>
<stop offset="1" stop-color="#68C0E8"/>
</linearGradient>
</defs>
</svg>
