<svg width="40" height="40" viewBox="0 0 40 40" fill="none" xmlns="http://www.w3.org/2000/svg">
<path fill-rule="evenodd" clip-rule="evenodd" d="M10.5365 14.1908C17.6242 15.1911 23.168 12.6077 27.0285 6.47536C27.0479 6.44462 27.0656 6.41311 27.0817 6.38094C28.5674 8.05274 29.4698 10.2545 29.4698 12.667V16.1336C29.4698 19.6373 27.5486 22.787 24.5704 24.4279C24.1824 24.1583 23.711 24.0003 23.2027 24.0003C21.8772 24.0003 20.8027 25.0748 20.8027 26.4003C20.8027 27.7258 21.8772 28.8003 23.2027 28.8003C23.874 28.8003 24.4809 28.5247 24.9165 28.0805C24.2675 30.1193 22.313 31.6003 20.0027 31.6003C17.1646 31.6003 14.8634 29.3652 14.8599 26.6067L15.6187 24.5261C12.5365 22.9149 10.5365 19.7085 10.5365 16.1336V14.1908ZM10.556 12.066C10.8659 7.11766 14.9774 3.2002 20.0039 3.2002C22.1224 3.2002 24.0784 3.89609 25.6557 5.07176C25.6073 5.12161 25.5628 5.17809 25.5231 5.24101C22.0487 10.76 17.1379 13.026 10.649 12.0743C10.6178 12.0698 10.5868 12.067 10.556 12.066ZM12.8818 27.6538C13.4044 31.0199 16.3927 33.6002 20.0008 33.6002C23.6096 33.6002 26.5984 31.0189 27.1201 27.6517L30.9563 28.4252C32.4802 28.7225 33.6944 29.8748 34.071 31.3811L35.1773 35.8062C35.3035 36.3111 34.9216 36.8002 34.4012 36.8002H5.60118C5.08072 36.8002 4.69883 36.3111 4.82506 35.8062L5.92991 31.3868C6.30739 29.8769 7.52648 28.723 9.04718 28.4305L12.8818 27.6538Z" fill="url(#paint0_linear_83_774)"/>
<path opacity="0.3" fill-rule="evenodd" clip-rule="evenodd" d="M23.1984 27.2001C23.6403 27.2001 23.9984 26.8419 23.9984 26.4001C23.9984 25.9583 23.6403 25.6001 23.1984 25.6001C22.7566 25.6001 22.3984 25.9583 22.3984 26.4001C22.3984 26.8419 22.7566 27.2001 23.1984 27.2001Z" fill="url(#paint1_linear_83_774)"/>
<path opacity="0.3" fill-rule="evenodd" clip-rule="evenodd" d="M30.9689 11.2002H31.1981C32.5236 11.2002 33.5981 12.2747 33.5981 13.6002V16.8002C33.5981 18.1257 32.5236 19.2002 31.1981 19.2002H30.6328C30.9157 18.2184 31.0652 17.1879 31.0652 16.1335V12.6669C31.0652 12.1696 31.0324 11.6801 30.9689 11.2002Z" fill="url(#paint2_linear_83_774)"/>
<path opacity="0.3" fill-rule="evenodd" clip-rule="evenodd" d="M9.36454 19.2002H8.79844C7.47295 19.2002 6.39844 18.1257 6.39844 16.8002V13.6002C6.39844 12.2747 7.47295 11.2002 8.79844 11.2002H9.0285C8.96496 11.6801 8.93216 12.1696 8.93216 12.6669V16.1335C8.93216 17.1879 9.08161 18.2184 9.36454 19.2002Z" fill="url(#paint3_linear_83_774)"/>
<defs>
<linearGradient id="paint0_linear_83_774" x1="6.35184" y1="9.50019" x2="36.8062" y2="11.4261" gradientUnits="userSpaceOnUse">
<stop stop-color="#8269E7"/>
<stop offset="0.526042" stop-color="#6089E9"/>
<stop offset="1" stop-color="#68C0E8"/>
</linearGradient>
<linearGradient id="paint1_linear_83_774" x1="22.4801" y1="25.9001" x2="24.0815" y2="26.012" gradientUnits="userSpaceOnUse">
<stop stop-color="#8269E7"/>
<stop offset="0.526042" stop-color="#6089E9"/>
<stop offset="1" stop-color="#68C0E8"/>
</linearGradient>
<linearGradient id="paint2_linear_83_774" x1="30.7841" y1="12.7002" x2="33.7645" y2="12.7774" gradientUnits="userSpaceOnUse">
<stop stop-color="#8269E7"/>
<stop offset="0.526042" stop-color="#6089E9"/>
<stop offset="1" stop-color="#68C0E8"/>
</linearGradient>
<linearGradient id="paint3_linear_83_774" x1="6.54977" y1="12.7002" x2="9.53097" y2="12.7774" gradientUnits="userSpaceOnUse">
<stop stop-color="#8269E7"/>
<stop offset="0.526042" stop-color="#6089E9"/>
<stop offset="1" stop-color="#68C0E8"/>
</linearGradient>
</defs>
</svg>
