<svg width="56" height="56" viewBox="0 0 56 56" fill="none" xmlns="http://www.w3.org/2000/svg">
<path fill-rule="evenodd" clip-rule="evenodd" d="M16.5595 42.9715C15.8046 40.9265 15.2048 38.6628 14.7867 36.2382C12.8038 34.6107 11.0506 32.8957 9.56462 31.1484C7.64918 34.4981 7.1065 37.6138 8.34051 39.8193C9.59731 42.0655 12.6197 43.1091 16.5595 42.9715ZM18.1168 46.473C12.1158 47.0024 7.26137 45.4052 5.09742 41.5377C3.01877 37.8226 3.98855 32.9139 7.19938 28.0001C3.98855 23.0864 3.01877 18.1776 5.09742 14.4626C7.26136 10.5951 12.1157 8.9979 18.1167 9.52727C20.5984 4.86897 24.0576 2 27.9963 2C31.9352 2 35.3945 4.86922 37.8762 9.52789C43.8805 8.99664 48.7378 10.5936 50.9026 14.4626C52.9812 18.1776 52.0115 23.0864 48.8006 28.0001C52.0115 32.9139 52.9812 37.8226 50.9026 41.5377C48.7378 45.4067 43.8804 47.0037 37.8761 46.4724C35.3944 51.1309 31.9351 54 27.9963 54C24.0576 54 20.5985 51.1311 18.1168 46.473ZM46.4358 24.8524C48.3511 21.5029 48.8937 18.3872 47.6598 16.1818C46.4022 13.9343 43.3769 12.8908 39.4336 13.0298C40.1876 15.0726 40.7868 17.3336 41.2048 19.7551C43.1913 21.3848 44.9476 23.1025 46.4358 24.8524ZM34.0504 10.1221C32.32 7.30388 30.2052 5.62793 27.9966 5.62793C25.7884 5.62793 23.6738 7.30336 21.9436 10.1208C23.8997 10.5471 25.9331 11.169 28 11.9822C30.0647 11.1698 32.0961 10.5484 34.0504 10.1221ZM32.7625 14.1723C33.7697 13.8816 34.7544 13.6456 35.7081 13.4645C36.0891 14.4125 36.4356 15.4287 36.7418 16.503C36.2079 16.1575 35.6629 15.8189 35.1072 15.4879C34.3272 15.0232 33.5448 14.5846 32.7625 14.1723ZM23.2376 14.1723C22.2281 13.8809 21.2412 13.6445 20.2856 13.4632C19.9037 14.4132 19.5566 15.4317 19.2498 16.5084C19.7864 16.1611 20.3342 15.8207 20.8928 15.4879C21.6729 15.0232 22.4552 14.5846 23.2376 14.1723ZM18.1582 21.7299C19.5967 20.6134 21.1566 19.545 22.8207 18.5536C24.5475 17.5249 26.2862 16.6385 28.0001 15.8952C29.7141 16.6385 31.4528 17.5249 33.1796 18.5536C34.8406 19.5432 36.3978 20.6094 37.8341 21.7237C38.1145 23.7175 38.2666 25.8242 38.2666 28C38.2666 30.1763 38.1144 32.2834 37.8339 34.2775C36.3977 35.3918 34.8406 36.458 33.1796 37.4475C31.4528 38.4762 29.7141 39.3627 28.0001 40.1059C26.2862 39.3627 24.5475 38.4762 22.8207 37.4475C21.1567 36.4561 19.5968 35.3878 18.1584 34.2713C17.8784 32.279 17.7266 30.1741 17.7266 28C17.7266 25.8264 17.8784 23.7219 18.1582 21.7299ZM14.7866 19.7621C15.2046 17.3379 15.8043 15.0744 16.5591 13.0296C12.6195 12.8921 9.59727 13.9357 8.34051 16.1818C7.10657 18.3872 7.64912 21.5027 9.56433 24.8522C11.0504 23.1049 12.8037 21.3898 14.7866 19.7621ZM11.718 28.0006C12.4497 27.0794 13.2714 26.1564 14.1753 25.2447C14.1265 26.1498 14.1016 27.069 14.1016 28C14.1016 28.9314 14.1265 29.851 14.1754 30.7565C13.2714 29.8448 12.4497 28.9217 11.718 28.0006ZM28 44.0181C30.0647 44.8304 32.096 45.4518 34.0503 45.8781C32.3199 48.6962 30.2051 50.3721 27.9966 50.3721C25.7884 50.3721 23.6739 48.6968 21.9437 45.8794C23.8998 45.4531 25.9332 44.8313 28 44.0181ZM23.2387 41.8285C22.2289 42.12 21.2418 42.3565 20.286 42.5378C19.904 41.5876 19.5568 40.5689 19.2499 39.4919C19.7865 39.8392 20.3342 40.1796 20.8928 40.5124C21.6732 40.9773 22.4559 41.4161 23.2387 41.8285ZM32.7614 41.8285C33.5441 41.4161 34.3268 40.9773 35.1072 40.5124C35.6628 40.1814 36.2078 39.8428 36.7417 39.4973C36.4354 40.5719 36.0889 41.5883 35.7077 42.5366C34.7538 42.3554 33.7689 42.1193 32.7614 41.8285ZM41.2047 36.2453C40.7867 38.6671 40.1873 40.9283 39.4332 42.9713C43.3767 43.1104 46.4022 42.0669 47.6598 39.8193C48.8938 37.6138 48.3511 34.498 46.4355 31.1482C44.9473 32.8981 43.1912 34.6156 41.2047 36.2453ZM41.8168 30.7647C42.7239 29.8503 43.5484 28.9245 44.2823 28.0006C43.5484 27.0766 42.724 26.1509 41.8168 25.2365C41.8659 26.1442 41.891 27.0662 41.891 28C41.891 28.9342 41.8659 29.8566 41.8168 30.7647Z" fill="url(#paint0_linear_120_951)"/>
<path opacity="0.3" fill-rule="evenodd" clip-rule="evenodd" d="M28.1091 34.1333C24.7351 34.1333 22 31.4172 22 28.0667C22 24.7161 24.7351 22 28.1091 22C31.483 22 34.2182 24.7161 34.2182 28.0667C34.2182 31.4172 31.483 34.1333 28.1091 34.1333Z" fill="url(#paint1_linear_120_951)"/>
<defs>
<linearGradient id="paint0_linear_120_951" x1="6.44898" y1="11.75" x2="54.5257" y2="14.8517" gradientUnits="userSpaceOnUse">
<stop stop-color="#8269E7"/>
<stop offset="0.526042" stop-color="#6089E9"/>
<stop offset="1" stop-color="#68C0E8"/>
</linearGradient>
<linearGradient id="paint1_linear_120_951" x1="22.6234" y1="24.275" x2="34.8515" y2="25.1356" gradientUnits="userSpaceOnUse">
<stop stop-color="#8269E7"/>
<stop offset="0.526042" stop-color="#6089E9"/>
<stop offset="1" stop-color="#68C0E8"/>
</linearGradient>
</defs>
</svg>
