<svg width="90" height="42" viewBox="0 0 90 42" fill="none" xmlns="http://www.w3.org/2000/svg">
<path d="M48.6505 1.77462V0.591844H57.492V1.77462H55.0864C54.4793 1.77462 54.0678 2.08147 53.8507 2.69426L49.742 16.1209H47.495L51.8999 1.77371H48.6496L48.6505 1.77462ZM41.8237 42H39.6136L34.3944 25.8782H39.8973L42.2137 33.3236L44.4995 25.8782H46.7564L41.8228 42H41.8237ZM29.0167 9.26737L26.8111 16.1218H24.5919L27.9117 5.78459L26.9363 2.69517C26.7192 2.08147 26.3076 1.77462 25.7006 1.77553H23.295V0.592754H35.6472V1.77553H32.3968L36.8612 16.1227H31.235L29.0158 9.26828L29.0167 9.26737ZM18.4848 42H16.2746L11.341 25.8782H16.7664L19.0044 33.5211L21.4587 25.8782H23.6715L18.4839 42H18.4848ZM4.24672 2.69426C4.02966 2.08056 3.61808 1.77371 3.01105 1.77462H0.605469V0.591844H12.9585V1.77462H9.70814L13.9096 16.1218H8.35539L4.24672 2.69426ZM76.7366 2.43111V16.1209H71.4058V2.43202H63.0191C61.8924 2.43202 61.2854 2.91369 61.1989 3.87795L60.2236 11.5683H58.7285V8.47885C58.7285 4.62276 58.5331 1.79647 58.1431 0C59.5301 0.394259 61.9357 0.591844 65.3599 0.591844H82.7834C86.2076 0.591844 88.6132 0.394259 90.0002 0C89.6102 1.79647 89.4148 4.62276 89.4148 8.47885V11.5683H87.9197L86.9444 3.87795C86.8579 2.91369 86.2509 2.43202 85.1242 2.43202H76.7375L76.7366 2.43111ZM76.7366 40.0278C76.7366 40.5541 77.0401 40.8163 77.6471 40.8163H83.3031V41.9991H64.8393V40.8163H70.4953C71.1023 40.8163 71.4058 40.5532 71.4058 40.0278V25.8782H76.7366V40.0278Z" fill="url(#paint0_linear_315_777)"/>
<path d="M8.39882 17.5701V17.3625H9.9447V17.5701H9.5244C9.41865 17.5701 9.34606 17.6238 9.30842 17.7322L7.20603 24.6377H6.81978L4.96742 18.8867L3.12581 24.6377H2.73956L0.636274 17.7313C0.598635 17.6238 0.526046 17.5692 0.420299 17.5692H0V17.3616H2.15885V17.5692H1.59069L3.21632 23.1471L4.77385 18.274L4.60358 17.7313C4.56594 17.6238 4.49335 17.5692 4.3876 17.5692H3.9673V17.3616H6.12705V17.5692H5.55888L7.27503 23.1125L8.96878 17.5692H8.40061L8.39882 17.5701ZM14.1611 24.6377H10.399V24.4301H10.9332C11.0389 24.4301 11.0927 24.3763 11.0927 24.268V17.7085C11.0927 17.6166 11.0398 17.5701 10.9332 17.5701H10.399V17.3625H14.0016C14.6003 17.3625 15.0205 17.3279 15.2634 17.2587C15.1953 17.5747 15.1612 18.0135 15.1612 18.5753V19.118H14.8996L14.7293 17.9398C14.7141 17.7704 14.6083 17.6858 14.4112 17.6858H12.0247V20.838H14.309C14.3995 20.838 14.4533 20.7843 14.4685 20.6759L14.525 19.9603H14.7293V22.039H14.525L14.4685 21.3233C14.4533 21.2159 14.4004 21.1613 14.309 21.1613H12.0247V24.3135H14.5707C14.7678 24.3135 14.8736 24.2288 14.8888 24.0595L15.0591 22.7082H15.3208V23.2509C15.3208 23.9284 15.3548 24.4246 15.4229 24.7405C15.1801 24.6713 14.7598 24.6367 14.1611 24.6367V24.6377ZM19.2191 24.6377H16.2734V24.4301H16.8075C16.9132 24.4301 16.967 24.3836 16.967 24.2917V17.7094C16.967 17.6175 16.9141 17.571 16.8075 17.571H16.2734V17.3634H18.935C19.5031 17.3634 19.9898 17.521 20.3939 17.8369C20.7981 18.1529 21.0006 18.5608 21.0006 19.0607C21.0006 19.4458 20.9003 19.7818 20.7004 20.0695C20.5006 20.3591 20.2335 20.5767 19.9001 20.7233C20.376 20.8307 20.764 21.0502 21.0643 21.3816C21.3627 21.713 21.5123 22.1528 21.5123 22.7028C21.5123 23.2536 21.2892 23.7144 20.842 24.0841C20.3966 24.4537 19.8553 24.6386 19.2191 24.6386V24.6377ZM19.1626 20.9309H17.9008V24.3144H19.1626C19.617 24.3144 19.9709 24.1451 20.2246 23.8063C20.4773 23.4676 20.6045 23.0715 20.6045 22.6172C20.6045 22.1628 20.4782 21.7677 20.2246 21.4326C19.9718 21.0984 19.6179 20.9318 19.1626 20.9318V20.9309ZM18.6966 17.6858H17.9008V20.6422H18.7647C19.2119 20.6422 19.5444 20.4884 19.763 20.1806C19.9826 19.8729 20.0928 19.5123 20.0928 19.0998C20.0928 18.6892 19.979 18.3495 19.7523 18.0837C19.5247 17.8187 19.1734 17.6867 18.6975 17.6867L18.6966 17.6858ZM29.2982 17.6858H27.8321V24.2907C27.8321 24.3827 27.8849 24.4291 27.9916 24.4291H28.98V24.6367H25.7521V24.4291H26.7405C26.8463 24.4291 26.9001 24.3827 26.9001 24.2907V17.6858H25.4339C25.2368 17.6858 25.131 17.7704 25.1158 17.9398L24.9455 19.291H24.6838V18.7483C24.6838 18.0709 24.6498 17.5747 24.5817 17.2587C24.8245 17.3279 25.2448 17.3625 25.8435 17.3625H28.8895C29.4882 17.3625 29.9085 17.3279 30.1513 17.2587C30.0832 17.5747 30.0492 18.0709 30.0492 18.7483V19.291H29.7875L29.6172 17.9398C29.602 17.7704 29.4962 17.6858 29.2991 17.6858H29.2982ZM34.3669 24.6377H30.6048V24.4301H31.1389C31.2446 24.4301 31.2984 24.3763 31.2984 24.268V17.7085C31.2984 17.6166 31.2455 17.5701 31.1389 17.5701H30.6048V17.3625H34.2073C34.806 17.3625 35.2263 17.3279 35.4691 17.2587C35.401 17.5747 35.367 18.0135 35.367 18.5753V19.118H35.1053L34.935 17.9398C34.9198 17.7704 34.814 17.6858 34.6169 17.6858H32.2304V20.838H34.5147C34.6052 20.838 34.659 20.7843 34.6742 20.6759L34.7307 19.9603H34.935V22.039H34.7307L34.6742 21.3233C34.659 21.2159 34.6061 21.1613 34.5147 21.1613H32.2304V24.3135H34.7764C34.9736 24.3135 35.0793 24.2288 35.0945 24.0595L35.2648 22.7082H35.5265V23.2509C35.5265 23.9284 35.5606 24.4246 35.6287 24.7405C35.3858 24.6713 34.9655 24.6367 34.3669 24.6367V24.6377ZM41.9681 24.6377H41.7548L41.7414 24.4756C41.7342 24.3135 41.6733 24.2334 41.5595 24.2334C41.5003 24.2334 41.3901 24.2762 41.2297 24.3609C40.7368 24.6377 40.2412 24.777 39.7411 24.777C38.7867 24.777 38.0044 24.4419 37.395 23.7726C36.7847 23.1025 36.4791 22.181 36.4791 21.0056C36.4791 19.8301 36.7811 18.9086 37.3842 18.2339C37.9856 17.561 38.7715 17.225 39.7411 17.225C40.234 17.225 40.726 17.3525 41.2189 17.6065C41.3784 17.6912 41.4913 17.734 41.5595 17.734C41.6733 17.734 41.7333 17.653 41.7414 17.4918L41.7548 17.2951H41.9681V19.2928H41.7638C41.6957 18.7001 41.4779 18.263 41.1114 17.9808C40.7448 17.7003 40.2878 17.5601 39.7402 17.5601C39.0511 17.5601 38.4964 17.8679 38.0761 18.4843C37.6549 19.0998 37.4443 19.943 37.4443 21.0128C37.4443 22.0827 37.6567 22.9222 38.0806 23.5304C38.5044 24.1387 39.0583 24.4428 39.7402 24.4428C40.2869 24.4428 40.7439 24.3017 41.1114 24.0203C41.4779 23.7399 41.6957 23.3037 41.7638 22.711H41.9681V24.6395V24.6377ZM47.8209 24.268V21.1613H44.5024V24.268C44.5024 24.3754 44.5553 24.4301 44.662 24.4301H45.1961V24.6377H42.8777V24.4301H43.4118C43.5176 24.4301 43.5713 24.3763 43.5713 24.268V17.7085C43.5713 17.6166 43.5185 17.5701 43.4118 17.5701H42.8777V17.3625H45.1961V17.5701H44.662C44.5562 17.5701 44.5024 17.6238 44.5024 17.7322V20.8389H47.8209V17.7322C47.8209 17.6248 47.7681 17.5701 47.6614 17.5701H47.1273V17.3625H49.4457V17.5701H48.9116C48.8058 17.5701 48.752 17.6166 48.752 17.7085V24.268C48.752 24.3754 48.8049 24.4301 48.9116 24.4301H49.4457V24.6377H47.1273V24.4301H47.6614C47.7672 24.4301 47.8209 24.3763 47.8209 24.268ZM55.959 24.6377H55.5951L51.3213 18.1938V24.268C51.3213 24.3754 51.3742 24.4301 51.4808 24.4301H52.015V24.6377H50.2424V24.4301H50.7765C50.8822 24.4301 50.936 24.3763 50.936 24.268V17.7085C50.936 17.6166 50.8831 17.5701 50.7765 17.5701H50.2424V17.3625H51.9128L55.5727 22.8594V17.7322C55.5727 17.6248 55.5198 17.5701 55.4132 17.5701H54.8791V17.3625H56.6517V17.5701H56.1176C56.0118 17.5701 55.9581 17.6166 55.9581 17.7085V24.6377H55.959ZM58.2935 23.7717C57.6921 23.1016 57.391 22.1783 57.391 21.0001C57.391 19.8219 57.6921 18.8986 58.2935 18.2284C58.8966 17.5583 59.6807 17.2241 60.6459 17.2241C61.611 17.2241 62.397 17.5592 62.9983 18.2284C63.6014 18.8986 63.9034 19.8219 63.9034 21.0001C63.9034 22.1783 63.6014 23.1016 62.9983 23.7717C62.397 24.4419 61.6128 24.7761 60.6459 24.7761C59.6789 24.7761 58.8966 24.441 58.2935 23.7717ZM59.0095 18.4597C58.5749 19.0834 58.3571 19.9302 58.3571 21.0001C58.3571 22.07 58.5749 22.9168 59.0095 23.5405C59.4459 24.1642 59.9899 24.4756 60.6414 24.4756C61.2929 24.4756 61.8387 24.1642 62.2778 23.5405C62.7169 22.9168 62.9374 22.07 62.9374 21.0001C62.9374 19.9302 62.7178 19.0834 62.2778 18.4597C61.8387 17.836 61.2929 17.5246 60.6414 17.5246C59.9899 17.5246 59.4459 17.836 59.0095 18.4597ZM68.1772 24.6377H64.6992V24.4301H65.2333C65.3391 24.4301 65.3928 24.3763 65.3928 24.268V17.7085C65.3928 17.6166 65.34 17.5701 65.2333 17.5701H64.6992V17.3625H67.0158V17.5701H66.4835C66.3759 17.5701 66.3222 17.6166 66.3222 17.7085V24.3135H68.5859C68.7812 24.3135 68.8879 24.2288 68.904 24.0595L69.0743 22.7082H69.3333V23.2509C69.3333 23.9284 69.3682 24.4246 69.4381 24.7405C69.1953 24.6713 68.775 24.6367 68.1763 24.6367L68.1772 24.6377ZM70.7393 23.7717C70.1362 23.1016 69.8342 22.1783 69.8342 21.0001C69.8342 19.8219 70.1362 18.8986 70.7393 18.2284C71.3407 17.5583 72.1248 17.2241 73.0918 17.2241C74.0587 17.2241 74.8411 17.5592 75.4442 18.2284C76.0455 18.8986 76.3466 19.8219 76.3466 21.0001C76.3466 22.1783 76.0455 23.1016 75.4442 23.7717C74.8411 24.4419 74.0569 24.7761 73.0918 24.7761C72.1266 24.7761 71.3407 24.441 70.7393 23.7717ZM71.4554 18.4597C71.0189 19.0834 70.8003 19.9302 70.8003 21.0001C70.8003 22.07 71.0189 22.9168 71.4554 23.5405C71.89 24.1642 72.434 24.4756 73.0855 24.4756C73.737 24.4756 74.2828 24.1642 74.7219 23.5405C75.161 22.9168 75.3815 22.07 75.3815 21.0001C75.3815 19.9302 75.1619 19.0834 74.7219 18.4597C74.2828 17.836 73.737 17.5246 73.0855 17.5246C72.434 17.5246 71.8909 17.836 71.4554 18.4597ZM80.4044 17.5592C79.7153 17.5592 79.1597 17.867 78.7385 18.4834C78.3191 19.0989 78.1085 19.9421 78.1085 21.0119C78.1085 22.0818 78.3209 22.9213 78.7447 23.5295C79.1686 24.1378 79.7009 24.4419 80.3408 24.4419C80.9816 24.4419 81.4296 24.2744 81.6842 23.9384C81.9369 23.6042 82.0641 23.1134 82.0641 22.4669V22.0053C82.0641 21.9133 82.0112 21.8669 81.9046 21.8669H81.1429V21.6593H83.4612V21.8669H83.1548C83.049 21.8669 82.9952 21.9133 82.9952 22.0053V22.4214C82.9952 23.1061 82.7524 23.6707 82.2675 24.1141C81.7827 24.5557 81.1617 24.777 80.4035 24.777C79.4491 24.777 78.6659 24.4419 78.0556 23.7726C77.4462 23.1025 77.1415 22.181 77.1415 21.0056C77.1415 19.8301 77.4435 18.9086 78.0466 18.2339C78.648 17.561 79.4339 17.225 80.4035 17.225C80.8964 17.225 81.3884 17.3525 81.8813 17.6065C82.0408 17.6912 82.1537 17.734 82.2218 17.734C82.3357 17.734 82.3957 17.653 82.4038 17.4918L82.4154 17.2951H82.6314V19.2928H82.4271C82.359 18.7001 82.1412 18.263 81.7747 17.9808C81.4063 17.7003 80.9493 17.5601 80.4035 17.5601L80.4044 17.5592ZM87.8488 17.571V17.3634H89.3947V17.571H88.9744C88.8687 17.571 88.7961 17.6248 88.7584 17.7331L87.0199 21.9944V24.2689C87.0199 24.3763 87.0728 24.431 87.1794 24.431H87.9976V24.6386H85.1111V24.431H85.9293C86.035 24.431 86.0888 24.3772 86.0888 24.2689V21.9825L84.1567 17.7331C84.1038 17.6257 84.0312 17.571 83.9407 17.571H83.5204V17.3634H85.6909V17.571H85.1227L86.8613 21.4053L88.4188 17.571H87.8506H87.8488Z" fill="white"/>
<defs>
<linearGradient id="paint0_linear_315_777" x1="5.16642" y1="7.875" x2="93.13" y2="20.9607" gradientUnits="userSpaceOnUse">
<stop stop-color="#8269E7"/>
<stop offset="0.526042" stop-color="#6089E9"/>
<stop offset="1" stop-color="#68C0E8"/>
</linearGradient>
</defs>
</svg>
