<svg width="56" height="56" viewBox="0 0 56 56" fill="none" xmlns="http://www.w3.org/2000/svg">
<g id="iconspace_Pen_25px">
<path id="Path" fill-rule="evenodd" clip-rule="evenodd" d="M32.9546 48.7574L42.5588 29.5441C41.855 29.457 41.1739 29.1433 40.6337 28.6029L29.6387 17.6051C29.0984 17.0647 28.7848 16.3836 28.6977 15.6797L9.48947 25.2862C9.14889 25.4566 8.92067 25.791 8.8862 26.1704L6.71875 50.0184L18.7222 38.2944C17.1611 36.1443 17.3497 33.1184 19.2877 31.1798C21.4347 29.0324 24.9155 29.0324 27.0624 31.1798C29.2093 33.3273 29.2093 36.809 27.0624 38.9564C25.2403 40.779 22.4575 41.0547 20.3447 39.7838L8.32897 51.5197L32.0707 49.3608C32.4499 49.3263 32.7843 49.098 32.9546 48.7574ZM25.5059 32.7352C24.2177 31.4468 22.1293 31.4468 20.8411 32.7352C19.553 34.0237 19.553 36.1127 20.8411 37.4012C22.1293 38.6897 24.2177 38.6897 25.5059 37.4012C26.794 36.1127 26.794 34.0237 25.5059 32.7352Z" fill="url(#paint0_linear_120_971)"/>
<path id="Path_2" opacity="0.3" d="M42.8874 26.5522L31.6874 15.3522C31.25 14.9148 31.25 14.2056 31.6874 13.7683L38.4074 7.04826C38.8448 6.61087 39.5539 6.61087 39.9913 7.04826L51.1913 18.2483C51.6287 18.6856 51.6287 19.3948 51.1913 19.8322L44.4713 26.5522C44.0339 26.9896 43.3248 26.9896 42.8874 26.5522Z" fill="url(#paint1_linear_120_971)"/>
</g>
<defs>
<linearGradient id="paint0_linear_120_971" x1="8.54732" y1="22.3997" x2="44.4188" y2="24.9068" gradientUnits="userSpaceOnUse">
<stop stop-color="#8269E7"/>
<stop offset="0.526042" stop-color="#6089E9"/>
<stop offset="1" stop-color="#68C0E8"/>
</linearGradient>
<linearGradient id="paint1_linear_120_971" x1="32.3879" y1="10.5002" x2="52.5656" y2="11.9105" gradientUnits="userSpaceOnUse">
<stop stop-color="#8269E7"/>
<stop offset="0.526042" stop-color="#6089E9"/>
<stop offset="1" stop-color="#68C0E8"/>
</linearGradient>
</defs>
</svg>
